G04 MADE WITH FRITZING*
G04 WWW.FRITZING.ORG*
G04 DOUBLE SIDED*
G04 HOLES PLATED*
G04 CONTOUR ON CENTER OF CONTOUR VECTOR*
%ASAXBY*%
%FSLAX23Y23*%
%MOIN*%
%OFA0B0*%
%SFA1.0B1.0*%
%ADD10C,0.077770*%
%ADD11C,0.066929*%
%ADD12C,0.070000*%
%ADD13C,0.066000*%
%ADD14C,0.140000*%
%ADD15C,0.080000*%
%ADD16C,0.039370*%
%ADD17R,0.066929X0.066929*%
%ADD18R,0.060000X0.160000*%
%ADD19C,0.024000*%
%LNCOPPER1*%
G90*
G70*
G54D10*
X2003Y1658D03*
X905Y1857D03*
X905Y1757D03*
X905Y1658D03*
X905Y1558D03*
X905Y1458D03*
X2003Y1757D03*
X2003Y1857D03*
X2003Y1558D03*
X905Y1358D03*
X905Y1258D03*
X905Y1158D03*
X905Y1059D03*
X905Y959D03*
X905Y859D03*
X905Y759D03*
X905Y659D03*
X905Y559D03*
X905Y459D03*
X2003Y1158D03*
X2003Y1059D03*
X2003Y959D03*
X2003Y859D03*
X2003Y759D03*
X2003Y659D03*
X2003Y559D03*
X2003Y459D03*
X2003Y1458D03*
X2003Y1358D03*
X2003Y1258D03*
G54D11*
X367Y1108D03*
X505Y1108D03*
G54D12*
X3355Y1558D03*
X3355Y1458D03*
X3355Y1358D03*
X3355Y1258D03*
X3355Y1158D03*
G54D13*
X3220Y808D03*
G54D12*
X2355Y1558D03*
X2355Y1458D03*
X2355Y1358D03*
X2355Y1258D03*
X2355Y1158D03*
X2355Y1058D03*
X2355Y958D03*
X2355Y858D03*
X2355Y758D03*
G54D14*
X545Y558D03*
X305Y558D03*
X425Y368D03*
G54D12*
X355Y858D03*
X455Y858D03*
G54D15*
X2355Y1758D03*
X2355Y2158D03*
G54D16*
X2754Y1806D03*
X2956Y1805D03*
G54D17*
X367Y1108D03*
G54D18*
X2755Y2274D03*
X2855Y2274D03*
X2955Y2274D03*
X2755Y2274D03*
X2955Y2274D03*
G54D19*
X2106Y1458D02*
X2106Y1259D01*
D02*
X2106Y1259D02*
X2033Y1258D01*
D02*
X2324Y1458D02*
X2106Y1458D01*
D02*
X2855Y807D02*
X2855Y2199D01*
D02*
X3189Y808D02*
X2855Y807D01*
D02*
X2754Y1458D02*
X2386Y1458D01*
D02*
X2754Y1787D02*
X2754Y1458D01*
D02*
X2754Y1825D02*
X2755Y2199D01*
D02*
X2955Y2199D02*
X2956Y1824D01*
G04 End of Copper1*
M02*