G04 MADE WITH FRITZING*
G04 WWW.FRITZING.ORG*
G04 DOUBLE SIDED*
G04 HOLES PLATED*
G04 CONTOUR ON CENTER OF CONTOUR VECTOR*
%ASAXBY*%
%FSLAX23Y23*%
%MOIN*%
%OFA0B0*%
%SFA1.0B1.0*%
%ADD10C,0.077770*%
%ADD11C,0.066929*%
%ADD12C,0.070000*%
%ADD13C,0.066000*%
%ADD14C,0.140000*%
%ADD15C,0.080000*%
%ADD16C,0.039370*%
%ADD17R,0.066929X0.066929*%
%ADD18C,0.024000*%
%LNCOPPER0*%
G90*
G70*
G54D10*
X2003Y1658D03*
X905Y1857D03*
X905Y1757D03*
X905Y1658D03*
X905Y1558D03*
X905Y1458D03*
X2003Y1757D03*
X2003Y1857D03*
X2003Y1558D03*
X905Y1358D03*
X905Y1258D03*
X905Y1158D03*
X905Y1059D03*
X905Y959D03*
X905Y859D03*
X905Y759D03*
X905Y659D03*
X905Y559D03*
X905Y459D03*
X2003Y1158D03*
X2003Y1059D03*
X2003Y959D03*
X2003Y859D03*
X2003Y759D03*
X2003Y659D03*
X2003Y559D03*
X2003Y459D03*
X2003Y1458D03*
X2003Y1358D03*
X2003Y1258D03*
G54D11*
X367Y1108D03*
X505Y1108D03*
G54D12*
X3355Y1558D03*
X3355Y1458D03*
X3355Y1358D03*
X3355Y1258D03*
X3355Y1158D03*
G54D13*
X3220Y808D03*
G54D12*
X2355Y1558D03*
X2355Y1458D03*
X2355Y1358D03*
X2355Y1258D03*
X2355Y1158D03*
X2355Y1058D03*
X2355Y958D03*
X2355Y858D03*
X2355Y758D03*
G54D14*
X545Y558D03*
X305Y558D03*
X425Y368D03*
G54D12*
X355Y858D03*
X455Y858D03*
G54D15*
X2355Y1758D03*
X2355Y2158D03*
G54D16*
X2754Y1806D03*
X2956Y1805D03*
G54D17*
X367Y1108D03*
G54D18*
X367Y1207D02*
X756Y1207D01*
D02*
X756Y1207D02*
X755Y559D01*
D02*
X367Y1141D02*
X367Y1207D01*
D02*
X755Y559D02*
X875Y559D01*
D02*
X656Y1108D02*
X538Y1108D01*
D02*
X656Y459D02*
X656Y1108D01*
D02*
X875Y459D02*
X656Y459D01*
D02*
X455Y1108D02*
X455Y884D01*
D02*
X472Y1108D02*
X455Y1108D01*
D02*
X365Y1076D02*
X356Y884D01*
D02*
X305Y858D02*
X305Y619D01*
D02*
X329Y858D02*
X305Y858D01*
D02*
X545Y858D02*
X545Y619D01*
D02*
X481Y858D02*
X545Y858D01*
D02*
X2324Y2158D02*
X1856Y2158D01*
D02*
X1856Y2158D02*
X1856Y1358D01*
D02*
X1856Y1358D02*
X1972Y1358D01*
D02*
X2355Y1727D02*
X2355Y1589D01*
D02*
X2172Y1757D02*
X2033Y1757D01*
D02*
X2324Y1258D02*
X2172Y1258D01*
D02*
X2172Y1258D02*
X2172Y1757D01*
D02*
X2033Y1158D02*
X2324Y1158D01*
D02*
X2324Y1058D02*
X2033Y1059D01*
D02*
X2033Y959D02*
X2324Y958D01*
D02*
X2155Y608D02*
X2155Y859D01*
D02*
X2155Y859D02*
X2033Y859D01*
D02*
X2454Y608D02*
X2155Y608D01*
D02*
X2454Y1359D02*
X2454Y608D01*
D02*
X2386Y1359D02*
X2454Y1359D01*
D02*
X2937Y1805D02*
X2773Y1806D01*
D02*
X337Y507D02*
X392Y420D01*
G04 End of Copper0*
M02*