; NON-PLATED HOLES START AT T1
; THROUGH (PLATED) HOLES START AT T100
M48
INCH
T1C0.125984
T100C0.030000
T101C0.043307
T102C0.039370
T103C0.100000
T104C0.037888
T105C0.040000
T106C0.015748
%
T1
X033658Y000944
X000934Y000850
X000934Y022697
X033667Y022642
T100
X004548Y008583
X003546Y008583
T101
X005048Y011083
X003670Y011083
T102
X023548Y009583
X033548Y013583
X023548Y014583
X032198Y008083
X033548Y015583
X023548Y010583
X023548Y013583
X033548Y012583
X033548Y014583
X023548Y008583
X033548Y011583
X023548Y011583
X023548Y007583
X023548Y012583
X023548Y015583
T103
X004248Y003683
X005448Y005583
X003048Y005583
T104
X009048Y010585
X020025Y004594
X009048Y006591
X009048Y005592
X020025Y008588
X009048Y007589
X020025Y009586
X009048Y012582
X009048Y013580
X009048Y004594
X009048Y018572
X009048Y015577
X020025Y012582
X020025Y018572
X009048Y014578
X009048Y009586
X020025Y017574
X020025Y013580
X020025Y010585
X020025Y015577
X009048Y016575
X020025Y007589
X009048Y017574
X020025Y005592
X020025Y011583
X020025Y014578
X009048Y008588
X020025Y016575
X009048Y011583
X020025Y006591
T105
X023548Y017583
X023548Y021583
T106
X027537Y018063
X029560Y018051
T00
M30
